<?xml version="1.0" encoding="UTF-8" standalone="no"?>
<!DOCTYPE svg PUBLIC "-//W3C//DTD SVG 1.1//EN" "http://www.w3.org/Graphics/SVG/1.1/DTD/svg11.dtd">
<svg version="1.1" xmlns="http://www.w3.org/2000/svg" xmlns:xlink="http://www.w3.org/1999/xlink" preserveAspectRatio="xMidYMid meet" viewBox="131.08588489863416 63.29212288375655 245.81455994204998 175.32373536158397" width="235.81" height="158.08"><defs><path d="M168.41 152.5C168.41 112.39 200.97 79.83 241.07 79.83C281.17 79.83 313.72 112.39 313.72 152.5C313.72 192.6 281.17 225.16 241.07 225.16C200.97 225.16 168.41 192.6 168.41 152.5Z" id="g1dtUsaY0r"></path><path d="M277.18 118.42C277.18 90.88 298.63 68.53 325.04 68.53C351.45 68.53 372.9 90.88 372.9 118.42C372.9 145.95 351.45 168.3 325.04 168.3C298.63 168.3 277.18 145.95 277.18 118.42Z" id="da5troy0S"></path><path d="M372.9 191.91C372.9 210.28 358.02 225.16 339.65 225.16C318.13 225.16 269.56 225.16 243.72 225.16C237.24 225.16 231.98 219.9 231.98 213.42C231.98 201.9 231.98 179.09 231.98 167.57C231.98 161.09 237.24 155.83 243.72 155.83C269.56 155.83 319.09 155.83 340.87 155.83C358.56 155.83 372.9 170.17 372.9 187.87C372.9 195.32 372.9 184.7 372.9 191.91Z" id="c2yq1c8y7T"></path><path d="M168.41 152.5C168.41 112.39 200.97 79.83 241.07 79.83C281.17 79.83 313.72 112.39 313.72 152.5C313.72 192.6 281.17 225.16 241.07 225.16C200.97 225.16 168.41 192.6 168.41 152.5Z" id="a2aXVbDZRc"></path><path d="M252.62 216.9C252.62 222.26 248.27 226.62 242.9 226.62C228.75 226.62 196.04 226.62 181.89 226.62C176.52 226.62 172.17 222.26 172.17 216.9C172.17 211.07 172.17 203.29 172.17 197.46C172.17 192.1 176.52 187.74 181.89 187.74C196.04 187.74 228.75 187.74 242.9 187.74C248.27 187.74 252.62 192.1 252.62 197.46C252.62 203.29 252.62 211.07 252.62 216.9Z" id="a3FN7jrxSZ"></path><path d="M168.41 153.96C168.41 113.85 200.97 81.29 241.07 81.29C281.17 81.29 313.72 113.85 313.72 153.96C313.72 194.06 281.17 226.62 241.07 226.62C200.97 226.62 168.41 194.06 168.41 153.96Z" id="eId4IIySx"></path><path d="M137.09 184.08C137.09 160.6 155.38 141.53 177.9 141.53C200.42 141.53 218.71 160.6 218.71 184.08C218.71 207.56 200.42 226.62 177.9 226.62C155.38 226.62 137.09 207.56 137.09 184.08Z" id="e1KBGxCM0S"></path></defs><g><g><g><filter id="shadow8034516" x="156.41" y="67.83" width="173.31" height="169.32" filterUnits="userSpaceOnUse" primitiveUnits="userSpaceOnUse"><feFlood></feFlood><feComposite in2="SourceAlpha" operator="in"></feComposite><feGaussianBlur stdDeviation="1"></feGaussianBlur><feOffset dx="-4" dy="0" result="afterOffset"></feOffset><feFlood flood-color="#000000" flood-opacity="0.5"></feFlood><feComposite in2="afterOffset" operator="in"></feComposite><feMorphology operator="dilate" radius="1"></feMorphology><feComposite in2="SourceAlpha" operator="out"></feComposite></filter><path d="M168.41 152.5C168.41 112.39 200.97 79.83 241.07 79.83C281.17 79.83 313.72 112.39 313.72 152.5C313.72 192.6 281.17 225.16 241.07 225.16C200.97 225.16 168.41 192.6 168.41 152.5Z" id="g62MrPF86Y" fill="white" fill-opacity="1" filter="url(#shadow8034516)"></path></g><use xlink:href="#g1dtUsaY0r" opacity="1" fill="#000000" fill-opacity="0"></use><g><use xlink:href="#g1dtUsaY0r" opacity="1" fill-opacity="0" stroke="#000000" stroke-width="1" stroke-opacity="0"></use></g></g><g><g><filter id="shadow6125581" x="265.18" y="56.53" width="123.72" height="123.77" filterUnits="userSpaceOnUse" primitiveUnits="userSpaceOnUse"><feFlood></feFlood><feComposite in2="SourceAlpha" operator="in"></feComposite><feGaussianBlur stdDeviation="1"></feGaussianBlur><feOffset dx="-4" dy="0" result="afterOffset"></feOffset><feFlood flood-color="#000000" flood-opacity="0.5"></feFlood><feComposite in2="afterOffset" operator="in"></feComposite><feMorphology operator="dilate" radius="1"></feMorphology><feComposite in2="SourceAlpha" operator="out"></feComposite></filter><path d="M277.18 118.42C277.18 90.88 298.63 68.53 325.04 68.53C351.45 68.53 372.9 90.88 372.9 118.42C372.9 145.95 351.45 168.3 325.04 168.3C298.63 168.3 277.18 145.95 277.18 118.42Z" id="c1WmnYov81" fill="white" fill-opacity="1" filter="url(#shadow6125581)"></path></g><use xlink:href="#da5troy0S" opacity="1" fill="#fdfca4" fill-opacity="1"></use><g><use xlink:href="#da5troy0S" opacity="1" fill-opacity="0" stroke="#000000" stroke-width="1" stroke-opacity="0"></use></g></g><g><g><filter id="shadow8377223" x="221.98" y="145.83" width="162.92" height="89.32" filterUnits="userSpaceOnUse" primitiveUnits="userSpaceOnUse"><feFlood></feFlood><feComposite in2="SourceAlpha" operator="in"></feComposite><feGaussianBlur stdDeviation="1"></feGaussianBlur><feOffset dx="2" dy="0" result="afterOffset"></feOffset><feFlood flood-color="#000000" flood-opacity="0.5"></feFlood><feComposite in2="afterOffset" operator="in"></feComposite><feMorphology operator="dilate" radius="1"></feMorphology><feComposite in2="SourceAlpha" operator="out"></feComposite></filter><path d="M372.9 191.91C372.9 210.28 358.02 225.16 339.65 225.16C318.13 225.16 269.56 225.16 243.72 225.16C237.24 225.16 231.98 219.9 231.98 213.42C231.98 201.9 231.98 179.09 231.98 167.57C231.98 161.09 237.24 155.83 243.72 155.83C269.56 155.83 319.09 155.83 340.87 155.83C358.56 155.83 372.9 170.17 372.9 187.87C372.9 195.32 372.9 184.7 372.9 191.91Z" id="b7RydacTN" fill="white" fill-opacity="1" filter="url(#shadow8377223)"></path></g><use xlink:href="#c2yq1c8y7T" opacity="1" fill="#7bdcfd" fill-opacity="1"></use><g><use xlink:href="#c2yq1c8y7T" opacity="1" fill-opacity="0" stroke="#000000" stroke-width="1" stroke-opacity="0"></use></g></g><g><g><filter id="shadow1036754" x="156.41" y="67.83" width="173.31" height="169.32" filterUnits="userSpaceOnUse" primitiveUnits="userSpaceOnUse"><feFlood></feFlood><feComposite in2="SourceAlpha" operator="in"></feComposite><feGaussianBlur stdDeviation="1"></feGaussianBlur><feOffset dx="-4" dy="0" result="afterOffset"></feOffset><feFlood flood-color="#000000" flood-opacity="0.5"></feFlood><feComposite in2="afterOffset" operator="in"></feComposite><feMorphology operator="dilate" radius="1"></feMorphology><feComposite in2="SourceAlpha" operator="out"></feComposite></filter><path d="M168.41 152.5C168.41 112.39 200.97 79.83 241.07 79.83C281.17 79.83 313.72 112.39 313.72 152.5C313.72 192.6 281.17 225.16 241.07 225.16C200.97 225.16 168.41 192.6 168.41 152.5Z" id="aOc952a3L" fill="white" fill-opacity="1" filter="url(#shadow1036754)"></path></g><use xlink:href="#a2aXVbDZRc" opacity="1" fill="#4891e3" fill-opacity="1"></use><g><use xlink:href="#a2aXVbDZRc" opacity="1" fill-opacity="0" stroke="#000000" stroke-width="1" stroke-opacity="0"></use></g></g><g><g><filter id="shadow7375666" x="164.17" y="179.74" width="96.45" height="54.87" filterUnits="userSpaceOnUse" primitiveUnits="userSpaceOnUse"><feFlood></feFlood><feComposite in2="SourceAlpha" operator="in"></feComposite><feGaussianBlur stdDeviation="1"></feGaussianBlur><feOffset dx="0" dy="0" result="afterOffset"></feOffset><feFlood flood-color="#000000" flood-opacity="0.5"></feFlood><feComposite in2="afterOffset" operator="in"></feComposite><feMorphology operator="dilate" radius="1"></feMorphology><feComposite in2="SourceAlpha" operator="out"></feComposite></filter><path d="M252.62 216.9C252.62 222.26 248.27 226.62 242.9 226.62C228.75 226.62 196.04 226.62 181.89 226.62C176.52 226.62 172.17 222.26 172.17 216.9C172.17 211.07 172.17 203.29 172.17 197.46C172.17 192.1 176.52 187.74 181.89 187.74C196.04 187.74 228.75 187.74 242.9 187.74C248.27 187.74 252.62 192.1 252.62 197.46C252.62 203.29 252.62 211.07 252.62 216.9Z" id="aM6Rf7T9i" fill="white" fill-opacity="1" filter="url(#shadow7375666)"></path></g><use xlink:href="#a3FN7jrxSZ" opacity="1" fill="#4a90e4" fill-opacity="1"></use><g><use xlink:href="#a3FN7jrxSZ" opacity="1" fill-opacity="0" stroke="#000000" stroke-width="1" stroke-opacity="0"></use></g></g><g><g><filter id="shadow16308153" x="131.41" y="44.29" width="220.31" height="222.32" filterUnits="userSpaceOnUse" primitiveUnits="userSpaceOnUse"><feFlood></feFlood><feComposite in2="SourceAlpha" operator="in"></feComposite><feGaussianBlur stdDeviation="3.74"></feGaussianBlur><feOffset dx="1" dy="-3" result="afterOffset"></feOffset><feFlood flood-color="#000000" flood-opacity="0.5"></feFlood><feComposite in2="afterOffset" operator="in"></feComposite><feMorphology operator="dilate" radius="1"></feMorphology><feComposite in2="SourceAlpha" operator="out"></feComposite></filter><path d="M168.41 153.96C168.41 113.85 200.97 81.29 241.07 81.29C281.17 81.29 313.72 113.85 313.72 153.96C313.72 194.06 281.17 226.62 241.07 226.62C200.97 226.62 168.41 194.06 168.41 153.96Z" id="h1nWfufSBe" fill="white" fill-opacity="1" filter="url(#shadow16308153)"></path></g><use xlink:href="#eId4IIySx" opacity="1" fill="#4a90e4" fill-opacity="1"></use><g><use xlink:href="#eId4IIySx" opacity="1" fill-opacity="0" stroke="#000000" stroke-width="1" stroke-opacity="0"></use></g></g><g><g><filter id="shadow14028939" x="125.09" y="129.53" width="109.63" height="109.09" filterUnits="userSpaceOnUse" primitiveUnits="userSpaceOnUse"><feFlood></feFlood><feComposite in2="SourceAlpha" operator="in"></feComposite><feGaussianBlur stdDeviation="1"></feGaussianBlur><feOffset dx="-4" dy="0" result="afterOffset"></feOffset><feFlood flood-color="#000000" flood-opacity="0.5"></feFlood><feComposite in2="afterOffset" operator="in"></feComposite><feMorphology operator="dilate" radius="1"></feMorphology><feComposite in2="SourceAlpha" operator="out"></feComposite></filter><path d="M137.09 184.08C137.09 160.6 155.38 141.53 177.9 141.53C200.42 141.53 218.71 160.6 218.71 184.08C218.71 207.56 200.42 226.62 177.9 226.62C155.38 226.62 137.09 207.56 137.09 184.08Z" id="c30V046loY" fill="white" fill-opacity="1" filter="url(#shadow14028939)"></path></g><use xlink:href="#e1KBGxCM0S" opacity="1" fill="#90d1fd" fill-opacity="1"></use><g><use xlink:href="#e1KBGxCM0S" opacity="1" fill-opacity="0" stroke="#000000" stroke-width="1" stroke-opacity="0"></use></g></g></g></svg>