<svg xmlns="http://www.w3.org/2000/svg" width="70" height="70" viewBox="0 0 70 70" style="width: 100%; height: 100%;"><desc>Made with illustrio</desc>

<g class="base"><g fill="none" fill-rule="evenodd" stroke="none" class="main-fill">


  </g><g fill="#F7F970" transform="translate(14.467 14.467)" stroke="none" class="main-fill">
      <path d="M8.4 20.5333333C8.4 20.1464667 8.08686667 19.8333333 7.7 19.8333333L.7 19.8333333C.313133333 19.8333333 0 20.1464667 0 20.5333333 0 20.9202.313133333 21.2333333.7 21.2333333L7.7 21.2333333C8.08686667 21.2333333 8.4 20.9202 8.4 20.5333333L8.4 20.5333333zM40.3666667 19.8333333L33.3666667 19.8333333C32.9802667 19.8333333 32.6666667 20.1464667 32.6666667 20.5333333 32.6666667 20.9202 32.9802667 21.2333333 33.3666667 21.2333333L40.3666667 21.2333333C40.7530667 21.2333333 41.0666667 20.9202 41.0666667 20.5333333 41.0666667 20.1464667 40.7530667 19.8333333 40.3666667 19.8333333L40.3666667 19.8333333zM20.5333333 8.4C20.9202 8.4 21.2333333 8.08686667 21.2333333 7.7L21.2333333.7C21.2333333.313133333 20.9202 0 20.5333333 0 20.1464667 0 19.8333333.313133333 19.8333333.7L19.8333333 7.7C19.8333333 8.08686667 20.1464667 8.4 20.5333333 8.4L20.5333333 8.4zM20.5333333 32.6666667C20.1464667 32.6666667 19.8333333 32.9802667 19.8333333 33.3666667L19.8333333 40.3666667C19.8333333 40.7530667 20.1464667 41.0666667 20.5333333 41.0666667 20.9202 41.0666667 21.2333333 40.7530667 21.2333333 40.3666667L21.2333333 33.3666667C21.2333333 32.9802667 20.9202 32.6666667 20.5333333 32.6666667L20.5333333 32.6666667zM10.9638667 11.9536667C11.1006 12.0904 11.2798 12.1585333 11.459 12.1585333 11.6382 12.1585333 11.8174 12.0904 11.9541333 11.9536667 12.2276 11.6806667 12.2276 11.2368667 11.9541333 10.9638667L7.0042 6.0144C6.73073333 5.74093333 6.28786667 5.74093333 6.0144 6.0144 5.74093333 6.2874 5.74093333 6.7312 6.0144 7.0042L10.9638667 11.9536667 10.9638667 11.9536667zM30.1028 29.113C29.8293333 28.8395333 29.3864667 28.8395333 29.113 29.113 28.8395333 29.3864667 28.8395333 29.8293333 29.113 30.1028L34.0624667 35.0522667C34.1992 35.189 34.3784 35.2571333 34.5576 35.2571333 34.7368 35.2571333 34.916 35.189 35.0527333 35.0522667 35.3262 34.7788 35.3262 34.3359333 35.0527333 34.0624667L30.1028 29.113 30.1028 29.113zM29.6076667 12.159C29.7868667 12.159 29.9660667 12.0908667 30.1028 11.9541333L35.0522667 7.00466667C35.3257333 6.73166667 35.3257333 6.28786667 35.0522667 6.01486667 34.7788 5.7414 34.3359333 5.7414 34.0624667 6.01486667L29.113 10.9638667C28.8395333 11.2368667 28.8395333 11.6806667 29.113 11.9536667 29.2497333 12.0904 29.4289333 12.159 29.6076667 12.159L29.6076667 12.159zM10.9638667 29.113L6.0144 34.0624667C5.74093333 34.3359333 5.74093333 34.7788 6.0144 35.0522667 6.15113333 35.189 6.33033333 35.2571333 6.50953333 35.2571333 6.68873333 35.2571333 6.86793333 35.189 7.00466667 35.0522667L11.9541333 30.1028C12.2276 29.8293333 12.2276 29.3864667 11.9541333 29.113 11.6806667 28.8395333 11.2373333 28.8395333 10.9638667 29.113L10.9638667 29.113zM20.5333333 10.5C15.001 10.5 10.5 15.001 10.5 20.5333333 10.5 26.0656667 15.001 30.5666667 20.5333333 30.5666667 26.0656667 30.5666667 30.5666667 26.0656667 30.5666667 20.5333333 30.5666667 15.001 26.0656667 10.5 20.5333333 10.5L20.5333333 10.5zM27.5333333 21.2333333C27.1469333 21.2333333 26.8333333 20.9202 26.8333333 20.5333333 26.8333333 17.0594667 24.0072 14.2333333 20.5333333 14.2333333 20.1464667 14.2333333 19.8333333 13.9202 19.8333333 13.5333333 19.8333333 13.1464667 20.1464667 12.8333333 20.5333333 12.8333333 24.7790667 12.8333333 28.2333333 16.2876 28.2333333 20.5333333 28.2333333 20.9202 27.9197333 21.2333333 27.5333333 21.2333333L27.5333333 21.2333333z" fill="none" stroke="none" class="main-fill"></path>
    </g></g><style>
          .main-fill {fill: #F7F970;}
          .main-stroke {stroke: #F7F970;}
          .secondary-fill {fill: #F7F970;}
          .secondary-stroke {stroke: #F7F970;}

          .main-fill--darken {fill: #F7F970;}
          .main-stroke--darken {stroke: #F7F970;}
          .secondary-fill--darken {fill: #F7F970;}
          .secondary-stroke--darken {stroke: #F7F970;}

          .main-fill--darkener {fill: #F7F970;}
          .main-stroke--darkener {stroke: #F7F970;}
          .secondary-fill--darkener {fill: #F7F970;}
          .secondary-stroke--darkener {stroke: #F7F970;}
        </style></svg>
